PathFileType	4	(X/Y/Z)	C:/Users/beibeiliu/ov580/test_trc/capture2\sequence.22_training_dense_right.trc
DataRate	CameraRate	NumFrames	NumMarkers	Units	OrigDataRate	OrigDataStartFrame	OrigNumFrames
120	120	25	19	mm	120	1	380
Frame#	Time	ThumbCMC			ThumbMCP			ThumbIP			ThumbTip			IndexMCP			IndexPIP			IndexTip			MiddleMCP			MiddlePIP			MiddleTip			RingMCP			RingPIP			RingTip			PinkyMCP			PinkyPIP			PinkyTip			BackHand1			BackHand2			BackHand3	
		X0	Y0	Z0	X1	Y1	Z1	X2	Y2	Z2	X3	Y3	Z3	X4	Y4	Z4	X5	Y5	Z5	X6	Y6	Z6	X7	Y7	Z7	X8	Y8	Z8	X9	Y9	Z9	X10	Y10	Z10	X11	Y11	Z11	X12	Y12	Z12	X13	Y13	Z13	X14	Y14	Z14	X15	Y15	Z15	X16	Y16	Z16	X17	Y17	Z17	X18	Y18	Z18	
0	0	107.106	27.0727	27.3663	84.6712	15.0896	9.20617	72.0218	8.66727	-14.42	62.6161	3.61988	-33.3937	117.383	31.0929	-47.7	112.453	21.4698	-74.6362	108.389	16.5119	-95.2349	146.046	29.9715	-53.1456	143.418	21.7846	-77.3963	148.189	14.106	-105.099	165.146	25.4768	-47.5336	169.742	18.856	-71.7586	176.187	11.8411	-97.5793	184.98	19.3663	-32.2702	196.762	14.7882	-50.0589	210.951	16.142	-66.2857	162.914	41.5645	1.5454	160.919	49.0065	31.9434	131.303	48.237	15.53	
1	0.00833333	103.982	26.8131	22.5109	87.8587	14.4164	10.2299	72.8272	8.07796	-15.8192	59.4144	2.58221	-30.3837	116.57	29.7794	-47.4466	109.398	22.3219	-73.8557	111.005	14.815	-98.5527	141.552	29.6378	-52.001	142.199	20.4238	-81.254	147.146	13.4817	-106.986	162.145	24.943	-49.756	173.069	17.9124	-68.0627	174.091	10.9595	-96.7297	183.13	18.438	-31.4264	196.336	14.1929	-50.8814	207.146	14.9287	-70.9957	161.625	40.6452	1.74098	160.178	47.6733	31.6235	129.874	48.6926	12.1836	
2	0.0166667	102.724	26.8001	28.429	87.8609	13.326	8.40449	71.267	7.57799	-14.192	62.222	2.25146	-31.98	116.623	29.1944	-47.2689	108.676	22.5602	-69.4168	111.367	15.7289	-94.8995	141.479	27.8636	-56.4133	141.58	19.8563	-80.2245	147.183	11.8404	-107.686	164.574	23.8474	-47.5609	168.488	17.1186	-67.8025	174.095	9.31823	-94.7193	183.253	18.7274	-32.3549	194.905	12.342	-47.9862	205.854	14.492	-66.436	162.463	39.8493	1.14845	163.367	47.1948	29.3975	131.851	48.5263	14.2493	
3	0.025	101.486	26.2314	26.0871	85.1164	13.5683	11.6863	71.8377	7.04233	-15.215	59.8183	1.032	-31.9746	114.162	29.1364	-44.7538	108.039	20.5452	-72.8548	111.901	14.7695	-95.9634	144.736	27.5078	-53.7844	144.74	18.3979	-80.3875	148.471	10.6157	-104.937	162.5	24.3391	-49.0902	169.416	16.6323	-71.4105	171.941	8.64884	-95.1259	182.401	18.0668	-30.8646	192.485	12.0623	-46.0915	208.134	14.3401	-68.7941	159.333	41.3649	1.08709	161.421	45.1611	32.7018	127.843	46.7856	11.2849	
4	0.0333333	100.532	26.8575	25.1301	86.2856	13.3786	10.9077	71.5991	7.26722	-13.4311	60.6659	0.731073	-32.3964	115.385	28.6164	-48.3276	108.062	21.6847	-69.5214	112.106	13.7471	-94.4786	139.872	28.3382	-50.2854	142.151	17.4887	-79.7527	144.654	11.2785	-103.09	161.472	23.3279	-43.6762	166.299	15.7866	-71.7832	171.898	8.62046	-96.4538	183.132	16.6121	-27.5262	194.489	12.2697	-49.8966	208.299	12.5799	-68.5496	159.958	40.27	4.81661	164.556	46.3344	32.8334	133.285	46.6963	15.7293	
5	0.0416667	101.734	25.9984	24.3701	88.7653	12.6379	10.3357	74.3927	6.48293	-9.2451	62.6389	1.02289	-28.9933	113.085	28.1601	-46.098	112.395	20.1009	-71.8983	106.048	12.9901	-96.5754	142.848	27.6979	-50.1931	144.934	18.6212	-76.1687	144.31	10.8676	-101.223	161.188	22.9028	-47.0861	169.676	16.058	-68.1594	169.851	8.03104	-92.222	185.843	16.0704	-30.1961	192.294	11.8779	-46.7195	211.057	13.2733	-68.4291	164.842	38.2503	2.62208	162.522	44.3829	30.3469	133.728	45.994	12.1081	
6	0.05	104.096	24.9786	25.755	85.1968	13.6664	12.1194	69.5418	7.4154	-11.452	59.1574	1.02227	-27.8123	114.504	27.9733	-46.0635	107.276	20.1747	-71.3848	111.687	12.1717	-95.4089	140.31	27.8519	-51.1277	142.728	18.0732	-75.9585	145.309	9.33906	-102.764	165.391	22.5631	-46.2389	170.77	15.0312	-67.8904	173.425	7.1712	-91.7213	182.341	15.451	-28.0911	196.466	9.35923	-47.2928	210.601	11.3982	-68.4389	161.336	39.6377	5.47801	160.249	44.1003	32.9737	131.523	45.308	13.2841	
7	0.0583333	103.005	25.2921	30.3849	85.6358	13.5559	12.0207	71.0312	7.4744	-10.2966	59.5378	1.96966	-29.933	112.615	28.8332	-45.98	110.373	18.779	-72.9478	109.081	11.1034	-97.5023	142.585	26.1316	-52.3352	143.144	16.9625	-77.2435	148.479	7.47424	-106.354	165.873	20.7775	-46.5564	171.556	13.5829	-68.8823	170.208	7.18374	-91.855	182.351	14.8563	-26.7278	192.063	9.1341	-44.8709	209.768	11.7324	-64.8801	161.203	39.6251	1.20789	161.363	44.5214	34.9164	129.562	46.4609	16.3892	
8	0.0666667	105.94	24.2936	25.6388	85.694	13.4284	12.6008	73.4015	7.81657	-8.73808	60.6299	2.07488	-27.8423	115.002	27.5539	-46.9576	109.426	20.1368	-71.2502	111.013	12.005	-92.9715	143.562	25.8823	-50.8612	144.077	15.0421	-78.9617	145.166	7.76965	-100.22	162.415	21.3405	-42.833	167.654	13.0473	-66.1395	171.353	4.89742	-94.4741	184.179	13.1679	-27.9815	191.853	7.01312	-47.7307	209.393	7.27764	-62.2345	166.12	37.7628	3.34935	165.443	41.5918	32.3702	133.915	44.3862	17.7767	
9	0.075	103.932	25.6735	30.679	85.4906	12.9087	12.1297	72.1256	8.58236	-8.7468	60.2836	3.62241	-29.803	117.384	28.2667	-46.8386	108.403	20.737	-67.364	109.559	9.74305	-94.8408	140.364	26.2356	-53.3864	143.041	15.0764	-78.5767	143.312	7.79018	-101.088	163.373	20.3525	-42.88	166.159	12.223	-66.2131	168.695	3.73667	-92.7094	186.211	11.3593	-27.6464	192.709	5.82684	-46.8502	205.354	7.93804	-65.5221	161.235	35.1522	6.1996	165.76	39.3075	31.7162	136.598	45.401	18.7487	
10	0.0833333	107.026	25.3619	27.3418	84.0261	14.6528	9.96875	69.3922	8.7561	-10.4032	61.0273	3.5609	-31.3768	116.225	29.667	-43.0291	108.355	19.6947	-71.2424	113.019	10.5646	-92.9139	143.358	25.0804	-52.1517	145.945	15.9418	-75.1853	145.221	4.65189	-101.288	165.5	18.7958	-46.3908	168.011	11.124	-67.306	169.018	1.33154	-92.6574	186.641	8.89779	-27.8045	192.292	3.91223	-47.2096	207.268	4.85015	-68.9624	162.479	34.6722	7.94595	165.613	40.0675	35.6674	136.3	42.708	19.5196	
11	0.0916667	106.159	25.4937	32.0771	89.8097	14.8894	11.7524	71.2455	10.7751	-13.7781	59.5857	6.53739	-33.2246	115.157	30.4674	-44.8553	111.433	21.0679	-70.6369	110.383	8.81067	-94.2266	141.361	26.8268	-48.7043	144.09	15.72	-76.5885	141.086	4.63681	-101.682	165.124	19.1891	-45.4435	168.707	9.57647	-67.1119	166.283	-2.16191	-94.3443	182.996	9.47145	-32.2339	194.211	2.3354	-49.8907	207.725	0.157595	-67.8396	165.855	33.1546	3.42634	166.172	37.243	34.7898	133.879	43.3147	16.1774	
12	0.1	105.064	27.5971	31.9165	89.2474	17.3753	11.819	73.6939	14.3083	-8.68661	62.748	11.877	-29.7797	116.112	34.2839	-46.066	112.842	23.5044	-69.5553	108.27	12.4714	-89.0816	142.166	27.9911	-52.6423	145.049	13.8775	-77.7139	141.69	1.28535	-100.272	164.362	18.8651	-45.9988	169.111	7.19528	-70.0235	162.751	-2.69987	-93.8782	185.278	7.65463	-30.4828	191.216	1.1778	-49.1653	203.401	-1.90784	-69.628	166.222	34.0311	5.97352	167.525	33.6573	35.4259	137.291	45.562	21.4627	
13	0.108333	110.372	28.5271	29.9028	89.182	20.7234	11.6832	76.3559	20.2964	-10.4416	64.493	18.078	-28.8545	122.584	36.4881	-41.9719	116.043	26.9156	-68.3504	109.405	10.79	-91.902	149.022	29.3996	-46.6804	145.884	17.8591	-73.4947	139.633	-1.39486	-100.268	167.693	18.1986	-45.6288	163.338	10.4435	-67.3744	162.102	-3.38933	-89.6563	185.274	5.62116	-26.1018	191.994	-1.6637	-49.8475	199.806	-3.04699	-67.7763	167.546	31.7754	10.8451	169.786	31.6207	36.1055	139.688	46.3335	23.7198	
14	0.116667	109.739	31.0766	31.3547	87.6657	25.379	14.4504	77.0483	25.8964	-9.96973	66.1634	26.1221	-34.7089	123.155	41.2343	-43.693	117.675	27.8451	-68.4141	109.651	12.4686	-86.4525	146.537	32.4399	-46.5556	146.645	18.9161	-71.5428	134.553	-2.96155	-94.8161	168.738	18.5929	-42.3022	164.638	8.41074	-69.8176	154.055	-7.18025	-91.1495	183.042	4.66339	-25.6274	192.483	-3.00419	-45.0844	200.295	-6.64992	-71.1288	171.901	28.3419	11.406	169.612	30.3157	40.2716	142.513	44.4918	22.3631	
15	0.125	110.461	36.0298	32.3687	91.7911	29.8533	13.6588	78.3634	33.0753	-9.02365	71.4313	32.8402	-31.6293	126.467	45.2175	-41.1127	116.947	31.2965	-66.5219	107.55	11.7523	-81.7467	149.652	33.8543	-47.0485	140.938	20.0816	-73.228	127.557	-2.14517	-87.9255	165.475	22.5614	-42.0797	166.355	8.6976	-65.7868	148.129	-10.1154	-85.6805	183.424	3.87649	-25.2145	190.092	-4.21579	-45.9533	196.397	-9.10437	-70.7733	175.062	27.3102	14.0912	174.964	26.9382	39.7366	145.959	44.8822	27.8661	
16	0.133333	115.61	37.0759	34.4715	93.2949	36.8911	13.3664	84.6479	40.2282	-12.7974	76.5971	41.0614	-34.917	131.598	48.371	-40.1479	119.654	35.9866	-63.7767	107.709	8.03443	-73.9545	152.227	37.527	-42.0962	141.551	22.7829	-69.0148	124.095	-5.13037	-76.3895	166.81	22.3494	-36.0432	158.96	8.21067	-65.9527	135.18	-10.371	-76.6549	182.373	2.17227	-21.4094	186.68	-5.0995	-49.1711	189.855	-12.4986	-73.7163	174.893	26.4285	16.4549	175.765	23.867	45.0521	150.062	44.3657	30.8095	
17	0.141667	116.518	43.6933	33.9938	99.0285	41.5752	10.3727	85.9563	48.391	-9.76793	81.8762	49.7672	-32.6866	138.67	49.1628	-39.3804	124.61	35.9045	-62.3651	106.248	12.5329	-63.8673	155.463	35.1245	-44.1758	138.596	19.1924	-67.4971	112.347	-0.845606	-63.165	166.754	21.8542	-39.0111	153.404	3.38507	-64.2449	126.381	-7.48602	-63.7223	180.911	1.56385	-25.0323	184.538	-8.56147	-49.6779	186.069	-19.4433	-72.4325	176.907	22.753	16.8957	175.616	20.3638	47.6865	151.369	46.4761	31.7887	
18	0.15	117.188	48.3255	37.7796	101.282	48.9749	10.2707	89.5757	56.0498	-10.4065	86.5246	58.3041	-36.4051	140.356	53.1074	-36.7957	126.509	39.7159	-60.4831	102.253	14.1332	-53.3559	154.343	36.5068	-45.2986	138.116	19.6568	-63.7448	109.46	-0.145439	-46.792	168.057	14.6478	-36.4748	149.775	3.9816	-60.9787	117.661	-5.46621	-50.0243	177.144	-2.64581	-21.5388	179.777	-11.6788	-50.6198	175.882	-22.8322	-71.0209	173.874	22.6545	15.2193	170.878	18.1796	45.0813	156.702	44.4666	30.9762	
19	0.158333	121.925	51.6952	34.2496	107.847	52.8351	8.72671	98.7605	60.1254	-11.541	94.9554	63.4259	-37.9989	143.838	51.7927	-34.8622	124.254	40.9076	-58.586	99.531	25.7742	-44.5376	155.364	29.0752	-45.2588	129.856	17.4955	-59.4142	105.434	8.59195	-32.5044	162.676	11.1419	-41.8335	137.739	3.67251	-57.5746	111.106	0.699172	-34.5173	171.414	-6.05111	-21.9856	174.034	-16.82	-48.2266	165.049	-22.3507	-76.3305	173.759	18.7248	12.9983	172.523	13.4915	42.2882	159.767	41.4903	32.6248	
20	0.166667	128.743	51.184	32.4784	112.809	57.8792	12.1638	104.442	69.5704	-13.8288	106.992	65.0315	-38.9135	147.681	46.1748	-37.1591	121.776	42.9469	-54.6601	100.325	33.0148	-31.5871	153.725	29.43	-41.3988	125.65	18.709	-55.9355	105.089	20.197	-20.4821	156.625	8.19467	-41.3215	126.8	3.9877	-51.2086	109.235	3.96284	-24.7753	167.942	-15.378	-23.4854	165.351	-23.9233	-46.985	154.066	-30.1934	-73.9164	174.387	7.381	17.7796	171.888	6.14781	45.6244	161.799	42.2036	27.7262	
21	0.175	135.868	55.5986	32.7307	122.334	61.3795	7.67295	116.936	74.3154	-16.5632	115.953	71.4153	-38.6107	147.637	46.3564	-39.8804	121.864	45.8043	-51.162	103.51	40.3272	-17.9275	149.875	25.0351	-42.8771	117.095	25.7193	-47.5498	108.024	26.5139	-12.0197	148.24	2.93067	-41.2997	119.907	4.93761	-44.8732	107.625	12.282	-13.2643	160.368	-18.7952	-26.362	154.356	-23.7486	-49.3226	143.277	-27.77	-74.1675	171.141	6.75083	18.2549	167.283	2.48644	45.7684	167.254	33.5625	31.3601	
22	0.183333	143.954	54.9616	33.4507	131.502	63.7813	11.008	131.982	73.8928	-18.8169	130.059	72.0791	-41.9055	150.611	45.8685	-38.9409	120.905	48.2385	-43.565	109.585	44.8108	-12.6806	147.725	20.4885	-38.1165	115.469	26.4486	-41.9173	113.428	33.0687	-3.52128	141.639	1.65426	-35.5452	111.431	12.7112	-37.5558	108.403	19.4948	-2.83279	151.275	-18.0143	-26.351	142.756	-26.908	-47.5414	133.397	-24.0761	-74.5882	168.689	0.16578	13.7772	162.885	-0.135046	48.1749	169.49	29.0638	28.2139	
23	0.191667	149.901	55.9565	35.8291	139.901	64.9762	9.63722	140.063	71.3195	-14.8848	139.334	74.7599	-41.6871	154.267	40.0312	-35.1119	123.773	52.9375	-41.7822	115.133	47.8942	-9.90066	146.409	23.012	-36.9678	113.972	32.1418	-37.1995	114.483	37.3322	-1.33542	134.214	4.82572	-34.4873	104.875	18.5496	-29.131	114.543	28.0143	3.45125	142.262	-20.5114	-25.3257	135.585	-23.0233	-45.1495	119.257	-21.5984	-71.8474	161.77	-6.12092	13.5696	160.912	-5.63849	48.0967	171.148	24.0265	32.291	
24	0.2	155.833	50.7918	33.1651	147.559	62.3682	8.82906	148.173	73.3521	-16.1737	146.901	70.2934	-44.4544	152.779	39.7574	-37.5955	126.156	51.2951	-39.9399	122.34	50.6145	-6.20875	141.84	18.3196	-35.6769	114.241	36.0734	-34.4681	120.726	38.4447	4.05105	130.463	8.34251	-35.7698	105.284	22.6996	-26.7828	113.205	28.101	3.72459	135.183	-20.0678	-22.8736	124.937	-20.1774	-49.8516	109.285	-17.2228	-67.8493	160.499	-8.79038	14.1447	157.747	-8.13353	49.0943	171.773	22.2553	31.4795	
